<svg id="Groupe_1" data-name="Groupe 1" xmlns="http://www.w3.org/2000/svg" width="1706.9" height="1080" viewBox="0 0 1706.9 1080">
  <rect id="Rectangle_1" data-name="Rectangle 1" width="1267.826" height="3.029" transform="translate(133.099 867.938)" fill="#3f3d56"/>
  <rect id="Rectangle_2" data-name="Rectangle 2" width="524.095" height="374.137" transform="translate(628.414 1.515)" fill="#6c63ff"/>
  <path id="Tracé_1" data-name="Tracé 1" d="M43.435,608.97S244.894,12.168,862.9,380.246,1730.84,634.72,1730.84,634.72" transform="translate(-33.029 -7.624)" fill="#f2f2f2"/>
  <rect id="Rectangle_3" data-name="Rectangle 3" width="566.508" height="3.029" transform="translate(637.503 969.425)" fill="#3f3d56"/>
  <path id="Tracé_2" data-name="Tracé 2" d="M1197.591,777.468H744.152S734.96,642.662,789.343,641.13s48.254,59.744,116.423-24.51,150.891-79.658,161.614-29.872-20.681,89.615,36.765,77.36S1244.313,684.023,1197.591,777.468Z" transform="translate(327.346 141.971)" fill="#6c63ff"/>
  <path id="Tracé_3" data-name="Tracé 3" d="M889.1,777.768l-1.53-.061c3.569-88.755,22.157-145.781,37.122-177.991,16.249-34.973,31.906-49.132,32.063-49.271l1.018,1.145c-.154.138-15.629,14.155-31.748,48.892C911.139,632.555,892.652,689.347,889.1,777.768Z" transform="translate(401.467 141.702)" fill="#f2f2f2"/>
  <path id="Tracé_4" data-name="Tracé 4" d="M997.419,734.611l-1.471-.428c17.708-60.78,59.408-99.155,59.827-99.536l1.029,1.134C1056.39,636.158,1015,674.262,997.419,734.611Z" transform="translate(457.255 185.042)" fill="#f2f2f2"/>
  <path id="Tracé_5" data-name="Tracé 5" d="M804.765,745.9l-1.518-.211c6.008-43.33-4.844-76.947-15.007-97.519-11-22.274-23.558-34.439-23.684-34.559l1.06-1.106c.128.122,12.876,12.474,24,34.987C799.871,668.255,810.826,702.183,804.765,745.9Z" transform="translate(338.152 173.645)" fill="#f2f2f2"/>
  <path id="Tracé_6" data-name="Tracé 6" d="M490.591,822.468H37.152S27.96,687.662,82.342,686.13s48.254,59.744,116.424-24.51,150.891-79.658,161.614-29.872-20.681,89.615,36.765,77.36S537.313,729.023,490.591,822.468Z" transform="translate(-36.565 165.133)" fill="#6c63ff"/>
  <path id="Tracé_7" data-name="Tracé 7" d="M182.1,822.768l-1.53-.061c3.569-88.755,22.157-145.781,37.122-177.991,16.249-34.974,31.906-49.132,32.063-49.271l1.018,1.145c-.154.138-15.629,14.155-31.748,48.892C204.139,677.555,185.652,734.347,182.1,822.768Z" transform="translate(37.556 164.864)" fill="#f2f2f2"/>
  <path id="Tracé_8" data-name="Tracé 8" d="M290.419,779.611l-1.471-.428c17.708-60.78,59.408-99.155,59.827-99.536l1.029,1.134C349.39,681.158,308,719.262,290.419,779.611Z" transform="translate(93.344 208.205)" fill="#f2f2f2"/>
  <path id="Tracé_9" data-name="Tracé 9" d="M97.765,790.9l-1.518-.211c6.008-43.33-4.844-76.947-15.007-97.519-11-22.274-23.558-34.439-23.684-34.559l1.06-1.106c.128.122,12.876,12.474,24,34.987C92.871,713.255,103.826,747.183,97.765,790.9Z" transform="translate(-25.76 196.808)" fill="#f2f2f2"/>
  <rect id="Rectangle_4" data-name="Rectangle 4" width="1667.714" height="3.029" transform="translate(39.186 1076.971)" fill="#3f3d56"/>
  <path id="Tracé_10" data-name="Tracé 10" d="M936.059,578.228v27.2l22.663,1.51-1.512-31.727Z" transform="translate(481.814 296.074)" fill="#a0616a"/>
  <path id="Tracé_11" data-name="Tracé 11" d="M1003.391,679.707l-15.109-3.022s-21.152,37.771-34.75,40.793c-11.9,2.644-39.99,12.229-29.621,25.717a14.893,14.893,0,0,0,13.121,5.487l64.848-5.519s25.684,1.511,25.684-13.6V679.707Z" transform="translate(419.015 206.681)" fill="#2f2e41"/>
  <path id="Tracé_12" data-name="Tracé 12" d="M939.52,484.259l-6.509,147.522,41.219,10.847Z" transform="translate(480.245 249.261)" fill="#2f2e41"/>
  <path id="Tracé_13" data-name="Tracé 13" d="M947.333,617.5v39.051l32.542,2.169-2.169-45.558Z" transform="translate(487.617 315.61)" fill="#a0616a"/>
  <path id="Tracé_14" data-name="Tracé 14" d="M939.5,458.316l17.355,26.033,39.05,234.3,6.508,141.013H1067.5l-15.186-342.77s30.372-36.88,8.678-73.761Z" transform="translate(428.199 86.464)" fill="#2f2e41"/>
  <path id="Tracé_15" data-name="Tracé 15" d="M1028.076,722.457l-21.694-4.339s-30.372,54.236-49.9,58.575c-16.736,3.719-55.785,17-43.376,35.748a21.277,21.277,0,0,0,19.63,9.061l93.168-7.929s36.88,2.169,36.88-19.525V722.457Z" transform="translate(413.383 228.007)" fill="#2f2e41"/>
  <circle id="Ellipse_1" data-name="Ellipse 1" cx="45.558" cy="45.558" r="45.558" transform="translate(1398.071 156.451)" fill="#a0616a"/>
  <path id="Tracé_16" data-name="Tracé 16" d="M972.441,244.83v65.083c0,2.169,49.9-4.339,49.9-4.339s2.17-60.744,2.17-67.252Z" transform="translate(445.155 -18.957)" fill="#a0616a"/>
  <path id="Tracé_17" data-name="Tracé 17" d="M1068.808,261.418s-28.2-6.508-78.1,26.033h-8.678l-2.169,49.9s-30.372,32.541-26.033,45.558c0,0-36.88,43.389-21.694,60.744,0,0-34.711,41.219-19.525,58.575,0,0-36.88,47.728-15.186,54.236,0,0,47.728,0,73.761,4.339s134.5-19.525,134.5-19.525,2.17-56.405,0-56.405h-2.169s8.677-52.066,4.339-54.236c0,0,2.169-58.575-4.339-60.744Z" transform="translate(403.023 -7.342)" fill="#3f3d56"/>
  <path id="Tracé_18" data-name="Tracé 18" d="M1030.282,294.255a47.7,47.7,0,0,0-36.909,27.356,77.871,77.871,0,0,0-6.028,44.171c6.508,43.389,21.694,56.405,21.694,56.405S993.854,428.7,998.193,435.2s-4.339,6.508-4.339,6.508,0,2.169-6.508,6.508-10.847,2.169-13.017,4.339-10.847,0-10.847,0-26.033,45.558,0,49.9,36.88-17.356,47.728-15.186,62.913-15.186,58.574-56.405-23.864-138.844-39.05-136.674Z" transform="translate(434.588 9.782)" fill="#d0cde1"/>
  <path id="Tracé_19" data-name="Tracé 19" d="M963.771,208.347a29.44,29.44,0,0,1,17.344-20.128c8.536-3.436,20.881-13.321,28.621-8.346,3.456,2.221,6.425,5.167,10.017,7.16,5.805,3.22,12.672,3.671,19.223,4.747,16.474,2.7,30.275,20.884,41.786,32.975s18.157,29.147,16.089,45.713c-1.364,10.928-6.277,21.046-9.528,31.568s-4.706,22.471.56,32.143c6.04,11.094,19.1,16.183,27.911,25.23a42.137,42.137,0,0,1,5.772,49.615c-1.969,3.279-4.432,6.356-5.464,10.038s-.116,8.309,3.275,10.077a26.775,26.775,0,0,0,4.787,1.373c5.435,1.641,8.746,7.218,10.2,12.707s1.577,11.291,3.362,16.68c4.359,13.162,17.38,21.125,29.442,27.963-23.831-.642-48.041-1.242-71.1,4.8-9.912,2.6-21.353,6.155-29.644.134-5.683-4.127-7.85-11.657-8.01-18.679s1.3-14.005,1.148-21.027c-.321-15.177-8.459-29.712-20.458-39.011-7.1-5.5-15.451-9.315-22.165-15.284a45.551,45.551,0,0,1-14.2-41.747c1.04-5.45,3.1-10.808,2.8-16.348-.606-10.931-10.129-19.484-12.17-30.24-2.143-11.3,4.285-22.3,6.074-33.661A76.394,76.394,0,0,0,999.071,256c-1.348-11.418-3.38-23.261-10.149-32.555-6.367-8.742-15.183-14.543-25.979-15.183-3.474-.206,1.394-3.189,0,0" transform="translate(439.609 -49.748)" fill="#2f2e41"/>
  <ellipse id="Ellipse_2" data-name="Ellipse 2" cx="4.339" cy="8.678" rx="4.339" ry="8.678" transform="translate(1436.036 196.586)" fill="#a0616a"/>
  <path id="Tracé_20" data-name="Tracé 20" d="M144.37,510.5l16.662,166.62,28.78-4.544L201.93,513.529Z" transform="translate(74.311 262.768)" fill="#ffb8b8"/>
  <path id="Tracé_21" data-name="Tracé 21" d="M228.379,700,189,706.059l4.544,48.471S179.908,762.1,189,786.339s9.088,30.295,9.088,30.295l31.2-3.019c12.091-1.17,41.152-12.069,45.293-23.488,1.718-4.737-16.62-5.722-20.449-6.816C243.527,780.281,228.379,700,228.379,700Z" transform="translate(40.287 218.682)" fill="#2f2e41"/>
  <path id="Tracé_22" data-name="Tracé 22" d="M242.37,506.5l16.662,166.62,28.78-4.544L299.93,509.529Z" transform="translate(124.754 260.709)" fill="#ffb8b8"/>
  <circle id="Ellipse_3" data-name="Ellipse 3" cx="46.957" cy="46.957" r="46.957" transform="translate(293.66 136.325)" fill="#ffb8b8"/>
  <path id="Tracé_23" data-name="Tracé 23" d="M297.215,241.147s-12.118,31.809,0,42.412-80.281,10.6-80.281,10.6L254.8,226Z" transform="translate(56.276 -25.299)" fill="#ffb8b8"/>
  <path id="Tracé_24" data-name="Tracé 24" d="M416.953,790.773c-19.691,34.839-212.062,10.6-212.062,10.6L171.567,780.17,157.935,772.6s9.088-145.414,25.75-234.783,59.074-95.428,59.074-95.428l.151-1.757,1.363-16.42s-1.257-1.348-3.423-3.787c-13.5-15.253-61.967-73.04-54.136-108.3,9.088-40.9,77.251-60.589,118.149-62.1S380.6,284.854,380.6,284.854l-5.907,24.766-25.9,108.53-.394,2.272-4.15,23.478c7.619.469,12.542,2.151,15.708,4.226,6.922,4.514,5.5,10.921,5.5,10.921l23.191,149.413Z" transform="translate(25.907 -12.961)" fill="#3f3d56"/>
  <path id="Tracé_25" data-name="Tracé 25" d="M158.4,475s-6.694,66.031,9.528,67.854S179.606,475,179.606,475Z" transform="translate(25.442 102.868)" fill="#ffb8b8"/>
  <path id="Tracé_26" data-name="Tracé 26" d="M213.068,279s-25.75-1.515-30.295,27.265-9.088,139.355-9.088,139.355l-25.75,137.84,53.015,6.059,34.839-209.032Z" transform="translate(20.76 1.977)" fill="#3f3d56"/>
  <path id="Tracé_27" data-name="Tracé 27" d="M345.715,477s10.6,60.589-6.059,62.1-22.721-59.074-22.721-59.074Z" transform="translate(107.749 103.898)" fill="#ffb8b8"/>
  <path id="Tracé_28" data-name="Tracé 28" d="M289.944,168.1a51.224,51.224,0,0,0-12.388.837,52.2,52.2,0,0,0-12.813,5.287c-18.765,9.964-37.316,22.948-46.123,42.283-7.232,15.876-6.982,34.139-4.62,51.423.76,5.56,1.72,11.247.546,16.735-2.416,11.295-13.076,18.884-17.917,29.371-4.966,10.758-3.235,23.64,1.731,34.4,1.417,3.07,3.13,6.371,2.339,9.658a12.573,12.573,0,0,1-2.521,4.557c-3.906,5.081-8.412,9.725-11.772,15.182s-5.528,12.034-4.119,18.286c1.455,6.457,6.39,11.469,11.111,16.108,4.43,4.354,9.643,9.021,15.845,8.685,3.731-.2,7.086-2.224,10.264-4.19,9.528-5.891,20.018-13.2,21.514-24.3,2.918,9.933,14.662,14.259,24.991,14.959,8.774.6,17.956-.476,25.472-5.042s12.985-13.161,12.024-21.9c-.75-6.824-5.115-13.918-2.04-20.055,2.334-4.659,7.924-6.422,12.312-9.233a25.71,25.71,0,0,0,10.737-27.283c-2.726-10.627-12.392-19.875-10.4-30.664,1.174-6.364,6.243-11.307,8.374-17.418,2.543-7.29.622-15.417-2.545-22.459S312.4,239.8,309.693,232.571a16.649,16.649,0,0,1-1.264-9.1c1.363-6.521,8.694-9.942,15.313-10.7s13.559.1,19.76-2.335c5.747-2.255,12.827-9.46,11.784-16.247-.983-6.4-9.957-11.259-14.946-14.211C325.3,171.089,307.147,168.486,289.944,168.1Z" transform="translate(38.217 -55.137)" fill="#2f2e41"/>
  <path id="Tracé_29" data-name="Tracé 29" d="M214.735,382.706l1.363-16.42s-1.257-1.348-3.423-3.787H320.221l-4.15,23.478c7.619.47-2.408-2.833.757-.757C290.184,382.949,242.3,382.813,214.735,382.706Z" transform="translate(54.083 44.961)" fill="#2f2e41"/>
  <path id="Tracé_30" data-name="Tracé 30" d="M325.332,542.56l-21.676,2.06L280.935,378c7.619.47,12.542,2.151,15.708,4.226,6.922,4.514,5.5,10.921,5.5,10.921Z" transform="translate(89.219 52.94)" opacity="0.1"/>
  <path id="Tracé_31" data-name="Tracé 31" d="M248.488,177.5l36.353,3.029L345.43,500.137,281.812,506.2,236.37,257.781Z" transform="translate(121.666 91.364)" fill="#3f3d56"/>
  <path id="Tracé_32" data-name="Tracé 32" d="M175.422,293,144.37,440.686,170.882,293Z" transform="translate(74.311 150.815)" opacity="0.1"/>
  <path id="Tracé_33" data-name="Tracé 33" d="M325.379,700,286,706.059l4.544,48.471S276.908,762.1,286,786.339s9.088,30.295,9.088,30.295l31.2-3.019c12.091-1.17,41.151-12.069,45.293-23.488,1.718-4.737-16.62-5.722-20.449-6.816C340.527,780.281,325.379,700,325.379,700Z" transform="translate(90.216 218.682)" fill="#2f2e41"/>
  <ellipse id="Ellipse_4" data-name="Ellipse 4" cx="4.544" cy="7.574" rx="4.544" ry="7.574" transform="translate(346.529 185.055) rotate(-30)" fill="#ffb8b8"/>
  <path id="Tracé_34" data-name="Tracé 34" d="M1085.121,470.667H397.435V93.5h687.686Zm-684.656-3.029h681.627V96.529H400.464Z" transform="translate(149.184 -93.5)" fill="#3f3d56"/>
  <path id="Tracé_35" data-name="Tracé 35" d="M666.612,164.384A72.707,72.707,0,0,0,563.789,267.207L666.612,370.03,769.435,267.207A72.707,72.707,0,1,0,666.612,164.384Z" transform="translate(223.85 -67.976)" fill="#fff"/>
</svg>
