<svg xmlns="http://www.w3.org/2000/svg" width="1588.064" height="771.549" viewBox="0 0 1588.064 771.549">
  <g id="Groupe_36" data-name="Groupe 36" transform="translate(0 -0.001)">
    <ellipse id="Ellipse_44" data-name="Ellipse 44" cx="228.119" cy="11.828" rx="228.119" ry="11.828" transform="translate(725.332 502.876)" fill="#f0f0f0"/>
    <ellipse id="Ellipse_45" data-name="Ellipse 45" cx="76.04" cy="11.828" rx="76.04" ry="11.828" transform="translate(172.778 747.893)" fill="#f0f0f0"/>
    <rect id="Rectangle_34" data-name="Rectangle 34" width="8.674" height="167.283" transform="matrix(0.101, -0.995, 0.995, 0.101, 987.067, 25.691)" fill="#e6e6e6"/>
    <circle id="Ellipse_46" data-name="Ellipse 46" cx="16.109" cy="16.109" r="16.109" transform="translate(925.851 0.001)" fill="#e6e6e6"/>
    <rect id="Rectangle_35" data-name="Rectangle 35" width="8.674" height="167.283" transform="matrix(0.101, -0.995, 0.995, 0.101, 987.067, 73.004)" fill="#e4e4e4"/>
    <circle id="Ellipse_47" data-name="Ellipse 47" cx="16.109" cy="16.109" r="16.109" transform="translate(925.851 47.314)" fill="#e4e4e4"/>
    <rect id="Rectangle_36" data-name="Rectangle 36" width="8.674" height="167.283" transform="matrix(0.101, -0.995, 0.995, 0.101, 987.067, 120.318)" fill="#6c63ff"/>
    <circle id="Ellipse_48" data-name="Ellipse 48" cx="16.109" cy="16.109" r="16.109" transform="translate(925.851 94.628)" fill="#6c63ff"/>
    <path id="Tracé_302" data-name="Tracé 302" d="M19.924,195.267l91.8-69.666-.749,135.643L24.427,332.638Z" transform="translate(13.743 86.635)" fill="#e4e4e4"/>
    <path id="Tracé_303" data-name="Tracé 303" d="M256.922,27.047,435.6,1.81l2.683,155.619L258.493,187.2Z" transform="translate(177.217 1.248)" fill="#6c63ff"/>
    <path id="Tracé_304" data-name="Tracé 304" d="M870.249,173.491V311.043l88.836,85.379,4.147-139.438Z" transform="translate(600.271 119.668)" fill="#6c63ff"/>
    <g id="Group_123" data-name="Group 123" transform="translate(1471.048 169.614)">
      <path id="Path_1733" data-name="Path 1733" d="M1000.656,322.077v20.294l61.9,50.288,2.906-17.4Z" transform="translate(-1000.656 -322.077)" fill="#6c63ff"/>
    </g>
    <path id="Path_1735" data-name="Path 1735" d="M1001.636,342.677l-.98,20.311,117.016,110.224-1.926-23.2Z" transform="translate(470.392 -138.254)" fill="#e6e6e6"/>
    <path id="Path_1736" data-name="Path 1736" d="M1000.656,365v19.331l117.016,112.184V471.368Z" transform="translate(470.392 -122.858)" fill="#e6e6e6"/>
    <path id="Tracé_305" data-name="Tracé 305" d="M155.435,455.83h-9.272l-4.412-35.767h13.685Z" transform="translate(97.776 289.746)" fill="#9e616a"/>
    <path id="Tracé_306" data-name="Tracé 306" d="M293.548,673.154h-29.9v-.378a11.638,11.638,0,0,1,11.637-11.638h18.263Z" transform="translate(-37.973 81.411)" fill="#2f2e41"/>
    <path id="Tracé_307" data-name="Tracé 307" d="M180.043,449.285l-8.572,3.537-17.722-31.377,12.65-5.221Z" transform="translate(106.051 287.097)" fill="#9e616a"/>
    <path id="Tracé_308" data-name="Tracé 308" d="M314.428,666.406,286.79,677.812l-.144-.35a11.638,11.638,0,0,1,6.317-15.2h0l16.881-6.967Z" transform="translate(-22.719 77.383)" fill="#2f2e41"/>
    <path id="Tracé_309" data-name="Tracé 309" d="M306.3,503.746s34.407,16.306,11.546,91l-1.74,59.091L304.7,762.466l-18.554-1.182-8.206-104.576-27.351-86.375,5.428-41.719Z" transform="translate(-46.979 -27.153)" fill="#2f2e41"/>
    <path id="Tracé_310" data-name="Tracé 310" d="M254.72,580.586l2.8-54.233c-19.027-31.952.475-50.206,2.059-51.607l17.435-25.46,15.254-4.187a20.1,20.1,0,0,1,25.42,19.538L317,553.5Z" transform="translate(-47.913 -68.101)" fill="#6c63ff"/>
    <path id="Tracé_311" data-name="Tracé 311" d="M142.984,382.482l19.174,79.524,21.972-8.93L154.354,381.1Z" transform="translate(98.626 262.868)" fill="#2f2e41"/>
    <path id="Tracé_312" data-name="Tracé 312" d="M261.306,559.027a9.649,9.649,0,0,0,4.321-14.15l19.441-27.532-16.2-.928-17.228,25.941a9.7,9.7,0,0,0,9.662,16.669Z" transform="translate(-48.931 -18.413)" fill="#9e616a"/>
    <path id="Tracé_313" data-name="Tracé 313" d="M136.006,243.741l8.5,59.961L120.5,348.914l20.09,12.575L175.2,310.321l-14.493-72.5Z" transform="translate(83.115 164.043)" fill="#6c63ff"/>
    <circle id="Ellipse_360" data-name="Ellipse 360" cx="25.651" cy="25.651" r="25.651" transform="translate(211.099 315.739)" fill="#9e616a"/>
    <path id="Tracé_314" data-name="Tracé 314" d="M320.91,534.7c.958-14.35,6.966-27.79,11.809-41.333s8.6-28.282,4.941-42.19a64.85,64.85,0,0,0-9.946-19.934c-8.012-11.62-18.228-22.425-31.465-27.322s-29.92-2.456-38.629,8.652a21.533,21.533,0,0,0-4.86,13.863,15.46,15.46,0,0,0,7.007,12.574c2.418,1.464,5.294,2.151,7.5,3.924s3.406,5.379,1.4,7.374l.8.394c7.174,1.546,11.177,9.677,11.116,17.016s-3.045,14.286-4.893,21.389-2.388,15.248,1.878,21.22c4.24,5.937,12.436,8.549,15.531,15.156,4.223,9.016-3.431,19.338-2.512,29.252.882,9.518,9.8,16.705,19.139,18.757s19.032.11,28.392-1.83C325.379,564.984,319.951,549.054,320.91,534.7Z" transform="translate(-45.484 -97.665)" fill="#2f2e41"/>
    <path id="Tracé_315" data-name="Tracé 315" d="M652.7,435.265l1.253-41.676-5.564-38.757-8.324.564-7,40.781,7.826,43.724a11.821,11.821,0,1,0,11.813-4.637Z" transform="translate(216.839 -129.869)" fill="#9e616a"/>
    <path id="Tracé_316" data-name="Tracé 316" d="M523.494,238.6,500.162,337.38l17.58,1.249,33.694-95.6Z" transform="translate(344.997 164.579)" fill="#9e616a"/>
    <path id="Tracé_317" data-name="Tracé 317" d="M538.584,238.317l32.2,96.254,15.6-8.2L561.675,229.6Z" transform="translate(371.499 158.371)" fill="#9e616a"/>
    <path id="Tracé_318" data-name="Tracé 318" d="M650.246,408.074s-11.18,12.363,8.113,36.094L633.344,575.2l18.588,6.759,33.8-87.868,30.416,76.04L739.8,559.991,707.483,444.167l3.59-29.5-8.934-8.256Z" transform="translate(217.032 -94.289)" fill="#e4e4e4"/>
    <path id="Tracé_319" data-name="Tracé 319" d="M669.614,328.456s-33.832,13.254-30.453,33.532l8.322,80.156-8.56,27.8s57.087,9.168,67.527-1.234l1.991-88.132,3.739-34.835L694.1,338.426l-4.512-6.691Z" transform="translate(220.881 -148.063)" fill="#3f3d56"/>
    <path id="Tracé_320" data-name="Tracé 320" d="M517.079,120.652,504.74,148.434l18.344,7.1Z" transform="translate(348.154 83.222)" fill="#3f3d56"/>
    <path id="Tracé_321" data-name="Tracé 321" d="M712.606,442.489l-14.879-79.426-23.671-1.977,6.672,39.871,16.118,45.115a11.833,11.833,0,1,0,15.76-3.583Z" transform="translate(245.114 -125.555)" fill="#9e616a"/>
    <path id="Tracé_322" data-name="Tracé 322" d="M666.347,348.393,680,387.15l26.425-3.491s5.789-35.874-13.158-44.973Z" transform="translate(239.796 -141.007)" fill="#3f3d56"/>
    <path id="Path_1770" data-name="Path 1770" d="M695.949,320.08c-.689,33.179-51.795,27.513-45.023-5.084C656.141,289.056,696.645,293.667,695.949,320.08Z" transform="translate(228.733 -169.251)" fill="#9e616a"/>
    <path id="Path_1784" data-name="Path 1784" d="M687.5,292.9c-16.023,2.731-40.837-3.693-40.35,21.393-1.643,2.457-3.45,5.148-2.282,8.229,5.652,6.892,8.605,17.567,15.983,22.408,6.576-.049,15.16.869,19.57-4.868,1.874-4.7-1.441-10.439,1.385-14.854,3.706-1.182,7.322,3.561,8.77-3.194a9.192,9.192,0,0,1,3.768-8.6C700.149,306.769,696.195,294.526,687.5,292.9Z" transform="translate(224.726 -172.588)" fill="#3f3d56"/>
    <path id="Tracé_323" data-name="Tracé 323" d="M627.562,517.3h27.63A17.608,17.608,0,0,1,672.8,534.907v.573l-45.237,0Z" transform="translate(213.044 -17.804)" fill="#2f2e41"/>
    <path id="Tracé_324" data-name="Tracé 324" d="M683.729,512.783l27.008-5.824h0a17.608,17.608,0,0,1,20.923,13.5l.121.559-44.221,9.535Z" transform="translate(251.786 -25.212)" fill="#2f2e41"/>
    <path id="Tracé_325" data-name="Tracé 325" d="M621.564,313.712h8.927l4.246-34.431H621.562Z" transform="translate(428.735 192.639)" fill="#ffb6b6"/>
    <path id="Tracé_326" data-name="Tracé 326" d="M750.31,519.632h17.58a11.2,11.2,0,0,1,11.2,11.2v.365H750.311Z" transform="translate(297.711 -16.196)" fill="#2f2e41"/>
    <path id="Tracé_327" data-name="Tracé 327" d="M594.564,313.712h8.927l4.246-34.431H594.562Z" transform="translate(410.111 192.639)" fill="#ffb6b6"/>
    <path id="Tracé_328" data-name="Tracé 328" d="M723.31,519.632h17.58a11.2,11.2,0,0,1,11.2,11.2v.365H723.311Z" transform="translate(279.088 -16.196)" fill="#2f2e41"/>
    <path id="Tracé_329" data-name="Tracé 329" d="M807.9,298.441a10.139,10.139,0,1,0-19.516,3.851l-20.513,32.455L755.1,360.482l10.538,9.353,8.11-8.535,26.523-53.046a10.133,10.133,0,0,0,7.628-9.812Z" transform="translate(301.014 -175.763)" fill="#ffb6b6"/>
    <path id="Tracé_330" data-name="Tracé 330" d="M746.111,358.573,726,355.456l-4.79,36.377-26.1,56.158a10.144,10.144,0,1,0,13.98,3.252l27.286-49.271Z" transform="translate(256.344 -129.439)" fill="#ffb6b6"/>
    <path id="Tracé_331" data-name="Tracé 331" d="M736.319,393.163s-17.682,16.351-15.435,57.463l4.953,63.513-1.249,88.535,18.161-1.427,15.867-148.372,15.208,60.832-5.459,81.035,17.494.406,18.381-91.579-4.357-67.885-7.319-42.52Z" transform="translate(277.278 -103.43)" fill="#2f2e41"/>
    <path id="Tracé_332" data-name="Tracé 332" d="M758.377,336.5l-42.244,11.828,21.48,64.357-3.211,24.62,65.135.422L784.453,390.14s8.465-17.408-1.2-29.61Z" transform="translate(274.137 -142.514)" fill="#e4e4e4"/>
    <path id="Tracé_333" data-name="Tracé 333" d="M738.133,353.863l5.069-10.139s-.164-2.548,11.747-3.809l13.975-13.89,12.791,12.749L760.1,370.761Z" transform="translate(289.312 -149.739)" fill="#e4e4e4"/>
    <path id="Tracé_334" data-name="Tracé 334" d="M737.924,352.915s-15.208-16.9-23.657-8.449-4.117,35.314-4.117,35.314l26.315,4.083Z" transform="translate(269.244 -138.652)" fill="#e4e4e4"/>
    <path id="Ellipse_358" data-name="Ellipse 358" d="M738.627,310.061c25.9.116,25.9,39.5,0,39.608C712.727,349.553,712.73,310.173,738.627,310.061Z" transform="translate(276.255 -160.751)" fill="#ffb6b6"/>
    <path id="Tracé_335" data-name="Tracé 335" d="M752.365,333.922c3.5,2.062,7.139,4.17,11.177,4.612s8.611-1.258,10.232-4.983a11.5,11.5,0,0,0,.793-4.049,26.919,26.919,0,0,0-6.814-19.289,24.411,24.411,0,0,0-18.733-7.92c-6.692.291-12.876,3.459-18.814,6.558-5.461,2.85-11.227,5.99-14.194,11.388-4.4,8-1.192,17.792-.338,26.88a50.639,50.639,0,0,1-12.208,37.665l36.85,3.492a43.129,43.129,0,0,0,13.454-.137A21.5,21.5,0,0,0,764,351.659c-5.23-5.036-13.642-8.6-13.849-15.858" transform="translate(265.4 -166.118)" fill="#2f2e41"/>
    <path id="Tracé_336" data-name="Tracé 336" d="M0,192.411,134.98,93.6l-1.068,8.454L.421,201.748Z" transform="translate(0 64.561)" fill="#6c63ff"/>
    <path id="Ellipse_365" data-name="Ellipse 365" d="M558.439,644.759c37.219-.153,37.22,8.062,0,7.908C521.22,652.82,521.219,644.6,558.439,644.759Z" transform="translate(146.11 70.111)" fill="#f0f0f0"/>
    <path id="Ellipse_365-2" data-name="Ellipse 365" d="M237.439,642.759c37.219-.153,37.22,8.062,0,7.908C200.22,650.82,200.22,642.6,237.439,642.759Z" transform="translate(-75.306 68.732)" fill="#f0f0f0"/>
    <path id="Ellipse_365-3" data-name="Ellipse 365" d="M853.439,557.759c37.219-.153,37.22,8.062,0,7.908C816.22,565.82,816.22,557.6,853.439,557.759Z" transform="translate(349.592 10.102)" fill="#f0f0f0"/>
    <path id="Tracé_337" data-name="Tracé 337" d="M845.21,557.286c.076-3.607-2.512-7.525-6.119-7.549a6.378,6.378,0,0,0-5.862,5.351,10.433,10.433,0,0,0,2.359,8.031,30.93,30.93,0,0,0,6.421,5.71l.637-2.323a7.435,7.435,0,0,1-1.411.692C843.175,564.158,845.135,560.893,845.21,557.286Z" transform="translate(354.849 4.57)" fill="#f0f0f0"/>
    <path id="Tracé_338" data-name="Tracé 338" d="M838.768,560.174a8.236,8.236,0,0,0,1.516-1.255c-.417.084-.828.2-1.247.272Z" transform="translate(358.727 10.903)" fill="#f0f0f0"/>
    <path id="Tracé_339" data-name="Tracé 339" d="M865.233,544.03a12.367,12.367,0,0,0-11.957-1.86,14.438,14.438,0,0,0-8.416,8.908c-1.3,3.878-1.036,8.091-1.67,12.133a14.484,14.484,0,0,1-3.525,7.8,81.453,81.453,0,0,0,18.738-6.177c4.319-2.042,8.788-4.853,10.286-9.389A10.833,10.833,0,0,0,865.233,544.03Z" transform="translate(359.346 -1.187)" fill="#f0f0f0"/>
    <path id="Tracé_340" data-name="Tracé 340" d="M552.21,644.286c.076-3.607-2.512-7.525-6.12-7.549a6.378,6.378,0,0,0-5.862,5.351,10.434,10.434,0,0,0,2.359,8.032,30.939,30.939,0,0,0,6.421,5.71l.637-2.323a7.425,7.425,0,0,1-1.411.693C550.175,651.158,552.135,647.893,552.21,644.286Z" transform="translate(152.746 64.58)" fill="#f0f0f0"/>
    <path id="Tracé_341" data-name="Tracé 341" d="M545.768,647.174a8.224,8.224,0,0,0,1.516-1.255c-.417.084-.828.2-1.247.272Z" transform="translate(156.624 70.913)" fill="#f0f0f0"/>
    <path id="Tracé_342" data-name="Tracé 342" d="M572.233,631.03a12.367,12.367,0,0,0-11.957-1.859,14.438,14.438,0,0,0-8.416,8.908c-1.3,3.878-1.036,8.091-1.669,12.133a14.484,14.484,0,0,1-3.525,7.8,81.456,81.456,0,0,0,18.738-6.177c4.319-2.042,8.788-4.853,10.286-9.389A10.833,10.833,0,0,0,572.233,631.03Z" transform="translate(157.243 58.823)" fill="#f0f0f0"/>
    <path id="Tracé_343" data-name="Tracé 343" d="M231.21,642.286c.076-3.607-2.512-7.525-6.119-7.549a6.378,6.378,0,0,0-5.862,5.351,10.433,10.433,0,0,0,2.359,8.031,30.935,30.935,0,0,0,6.421,5.71l.637-2.323a7.441,7.441,0,0,1-1.411.692C229.175,649.158,231.135,645.893,231.21,642.286Z" transform="translate(-68.67 63.201)" fill="#f0f0f0"/>
    <path id="Tracé_344" data-name="Tracé 344" d="M224.768,645.174a8.224,8.224,0,0,0,1.516-1.255c-.417.084-.828.2-1.247.272Z" transform="translate(-64.792 69.534)" fill="#f0f0f0"/>
    <path id="Tracé_345" data-name="Tracé 345" d="M251.233,629.03a12.367,12.367,0,0,0-11.957-1.859,14.438,14.438,0,0,0-8.416,8.908c-1.3,3.878-1.036,8.091-1.669,12.133a14.484,14.484,0,0,1-3.525,7.8,81.461,81.461,0,0,0,18.738-6.178c4.319-2.042,8.788-4.853,10.286-9.389A10.833,10.833,0,0,0,251.233,629.03Z" transform="translate(-64.173 57.444)" fill="#f0f0f0"/>
  </g>
</svg>
