<svg id="Groupe_28" data-name="Groupe 28" xmlns="http://www.w3.org/2000/svg" width="1868.451" height="803.001" viewBox="0 0 1868.451 803.001">
  <path id="Tracé_91" data-name="Tracé 91" d="M105.422,633.11a30.61,30.61,0,0,1,61.219,0" transform="translate(-53.138 72.108)" fill="#f2f2f2"/>
  <path id="Tracé_92" data-name="Tracé 92" d="M122.951,627.478a.827.827,0,0,1-.827-.827V610.518a.827.827,0,0,1,1.655,0V626.65A.827.827,0,0,1,122.951,627.478Z" transform="translate(-40.058 77.741)" fill="#ccc"/>
  <path id="Tracé_93" data-name="Tracé 93" d="M127.311,621.026a.823.823,0,0,1-.538-.2l-9.927-8.52a.827.827,0,1,1,1.078-1.255l9.927,8.52a.827.827,0,0,1-.539,1.455Z" transform="translate(-44.418 78.649)" fill="#ccc"/>
  <path id="Tracé_94" data-name="Tracé 94" d="M158.31,633.11a30.61,30.61,0,1,1,61.219,0" transform="translate(-11.716 72.108)" fill="#f2f2f2"/>
  <path id="Tracé_95" data-name="Tracé 95" d="M175.839,627.478a.828.828,0,0,1-.827-.827V610.518a.827.827,0,0,1,1.655,0V626.65a.827.827,0,0,1-.827.827Z" transform="translate(1.365 77.741)" fill="#ccc"/>
  <path id="Tracé_96" data-name="Tracé 96" d="M180.2,621.026a.824.824,0,0,1-.539-.2l-9.927-8.52a.827.827,0,1,1,1.078-1.255l9.927,8.521a.827.827,0,0,1-.539,1.455Z" transform="translate(-2.995 78.649)" fill="#ccc"/>
  <circle id="Ellipse_12" data-name="Ellipse 12" cx="58.846" cy="58.846" r="58.846" transform="translate(1340.617 2.334)" fill="#f2f2f2"/>
  <ellipse id="Ellipse_13" data-name="Ellipse 13" cx="53.497" cy="12.483" rx="53.497" ry="12.483" transform="translate(140.509 745.937)" fill="#f2f2f2"/>
  <path id="Tracé_97" data-name="Tracé 97" d="M171.911,470.208c14.03-43.811,48.289-77.788,88.918-98,48.206-23.977,103.6-26.692,155.941-17.36,56.5,10.074,109.312,33.3,160.429,58.64,50.138,24.858,99.468,51.106,151.611,71.649a981.443,981.443,0,0,0,326.234,67.576c100.629,3.357,208.221-7.669,294.382-64.228,78.948-51.824,129.184-137.318,155.349-226.436q5.024-17.114,8.933-34.522c.76-3.352-4.4-4.784-5.159-1.422-21.106,93.062-66.112,185.04-143.01,244.362-83.171,64.161-192.328,78.993-294.475,77.3A976.7,976.7,0,0,1,740.577,483.99c-53.484-20.361-103.954-46.8-155.068-72.327-49.991-24.965-101.386-48.334-156.358-59.848-50.2-10.514-103.94-11.155-152.337,7.554-39.851,15.405-76.187,42.865-97.452,80.428a154.241,154.241,0,0,0-12.61,28.989c-1.052,3.286,4.111,4.693,5.159,1.422Z" transform="translate(-5.214 -224.191)" fill="#f2f2f2"/>
  <path id="Tracé_98" data-name="Tracé 98" d="M662.11,598.136a1.783,1.783,0,0,0,0-3.567H645.169v-7.133H662.11a1.783,1.783,0,0,0,0-3.566H517.669a1.783,1.783,0,1,0,0,3.566H534.61v7.133H517.669a1.783,1.783,0,1,0,0,3.567H534.61v7.133H517.669a1.783,1.783,0,1,0,0,3.567H534.61v7.133H519.452a3.566,3.566,0,1,0,0,7.133h14.429a2.66,2.66,0,0,0-.164.892v24.965a2.675,2.675,0,1,0,5.35,0V623.993a2.663,2.663,0,0,0-.164-.892H640.875a2.657,2.657,0,0,0-.164.892v24.965a2.675,2.675,0,1,0,5.35,0V623.993a2.663,2.663,0,0,0-.164-.892h14.429a3.566,3.566,0,1,0,0-7.133H645.169v-7.133H662.11a1.783,1.783,0,0,0,0-3.567H645.169v-7.133Zm-123.934-10.7H641.6v7.133H538.176ZM641.6,615.968H538.176v-7.133H641.6Zm0-10.7H538.176v-7.133H641.6Z" transform="translate(268.345 57.517)" fill="#3f3d56"/>
  <path id="Tracé_99" data-name="Tracé 99" d="M343.024,596.555c0-31.494-25.548-106.227-57.063-106.227S228.9,565.061,228.9,596.555a57.063,57.063,0,0,0,114.126,0Z" transform="translate(43.57 -15.747)" fill="#e6e6e6"/>
  <path id="Tracé_100" data-name="Tracé 100" d="M335.024,596.555c0-31.494-25.548-106.227-57.063-106.227S220.9,565.061,220.9,596.555a57.063,57.063,0,0,0,114.126,0Z" transform="translate(37.304 -15.747)" fill="#f2f2f2"/>
  <path id="Tracé_101" data-name="Tracé 101" d="M254.681,692.832a1.783,1.783,0,0,1-1.783-1.783V532.092a1.783,1.783,0,0,1,3.566,0V691.049A1.783,1.783,0,0,1,254.681,692.832Z" transform="translate(62.367 15.566)" fill="#ccc"/>
  <path id="Tracé_102" data-name="Tracé 102" d="M254.681,557.731a1.783,1.783,0,0,1-1.261-3.044l23.32-23.321a1.783,1.783,0,0,1,2.522,2.522l-23.32,23.321a1.777,1.777,0,0,1-1.261.522Z" transform="translate(62.368 15.986)" fill="#ccc"/>
  <path id="Tracé_103" data-name="Tracé 103" d="M622.681,692.832a1.783,1.783,0,0,1-1.783-1.783V532.092a1.783,1.783,0,1,1,3.566,0V691.049A1.783,1.783,0,0,1,622.681,692.832Z" transform="translate(350.593 15.566)" fill="#3f3d56"/>
  <path id="Tracé_104" data-name="Tracé 104" d="M779.024,596.555c0-31.494-25.548-106.227-57.063-106.227S664.9,565.061,664.9,596.555a57.063,57.063,0,1,0,114.126,0Z" transform="translate(385.055 -15.747)" fill="#e6e6e6"/>
  <path id="Tracé_105" data-name="Tracé 105" d="M771.024,596.555c0-31.494-25.548-106.227-57.063-106.227S656.9,565.061,656.9,596.555a57.063,57.063,0,1,0,114.126,0Z" transform="translate(378.789 -15.747)" fill="#f2f2f2"/>
  <path id="Tracé_106" data-name="Tracé 106" d="M690.681,692.832a1.783,1.783,0,0,1-1.783-1.783V532.092a1.783,1.783,0,0,1,3.566,0V691.049A1.783,1.783,0,0,1,690.681,692.832Z" transform="translate(403.852 15.566)" fill="#ccc"/>
  <path id="Tracé_107" data-name="Tracé 107" d="M690.681,557.731a1.783,1.783,0,0,1-1.26-3.044l23.32-23.321a1.783,1.783,0,0,1,2.522,2.522l-23.321,23.321a1.776,1.776,0,0,1-1.261.522Z" transform="translate(403.852 15.986)" fill="#ccc"/>
  <path id="Tracé_108" data-name="Tracé 108" d="M375.954,312.028H347.422A8.033,8.033,0,0,1,339.4,304V238.025A8.033,8.033,0,0,1,347.422,230h28.532a8.033,8.033,0,0,1,8.024,8.024V304a8.033,8.033,0,0,1-8.024,8.025Z" transform="translate(130.116 -219.641)" fill="#e6e6e6"/>
  <path id="Tracé_109" data-name="Tracé 109" d="M493.779,893.561H347.555A15.175,15.175,0,0,1,332.4,878.4V288.157A15.175,15.175,0,0,1,347.555,273H493.779a15.174,15.174,0,0,1,15.157,15.157V878.4A15.174,15.174,0,0,1,493.779,893.561Z" transform="translate(124.634 -185.963)" fill="#e6e6e6"/>
  <path id="Tracé_110" data-name="Tracé 110" d="M444.779,893.561H298.555A15.175,15.175,0,0,1,283.4,878.4V288.157A15.175,15.175,0,0,1,298.555,273H444.779a15.175,15.175,0,0,1,15.157,15.157V878.4A15.175,15.175,0,0,1,444.779,893.561Z" transform="translate(86.256 -185.963)" fill="#f2f2f2"/>
  <path id="Tracé_111" data-name="Tracé 111" d="M360.954,312.028H332.422A8.033,8.033,0,0,1,324.4,304V238.025A8.033,8.033,0,0,1,332.422,230h28.531a8.033,8.033,0,0,1,8.025,8.024V304a8.033,8.033,0,0,1-8.025,8.025Z" transform="translate(118.368 -219.641)" fill="#f2f2f2"/>
  <path id="Tracé_112" data-name="Tracé 112" d="M340.737,374.63H306.856a4.463,4.463,0,0,1-4.458-4.458V318.458A4.463,4.463,0,0,1,306.856,314h33.881a4.463,4.463,0,0,1,4.458,4.458v51.713a4.463,4.463,0,0,1-4.458,4.458Z" transform="translate(101.137 -153.851)" fill="#fff"/>
  <path id="Tracé_113" data-name="Tracé 113" d="M377.737,374.63H343.856a4.463,4.463,0,0,1-4.458-4.458V318.458A4.463,4.463,0,0,1,343.856,314h33.881a4.463,4.463,0,0,1,4.458,4.458v51.713a4.463,4.463,0,0,1-4.458,4.458Z" transform="translate(130.116 -153.851)" fill="#fff"/>
  <path id="Tracé_114" data-name="Tracé 114" d="M340.737,427.63H306.856a4.463,4.463,0,0,1-4.458-4.458V371.458A4.463,4.463,0,0,1,306.856,367h33.881a4.463,4.463,0,0,1,4.458,4.458v51.713a4.463,4.463,0,0,1-4.458,4.458Z" transform="translate(101.137 -112.34)" fill="#fff"/>
  <path id="Tracé_115" data-name="Tracé 115" d="M377.737,427.63H343.856a4.463,4.463,0,0,1-4.458-4.458V371.458A4.463,4.463,0,0,1,343.856,367h33.881a4.463,4.463,0,0,1,4.458,4.458v51.713a4.463,4.463,0,0,1-4.458,4.458Z" transform="translate(130.116 -112.34)" fill="#fff"/>
  <path id="Tracé_116" data-name="Tracé 116" d="M340.737,480.63H306.856a4.463,4.463,0,0,1-4.458-4.458V424.458A4.463,4.463,0,0,1,306.856,420h33.881a4.463,4.463,0,0,1,4.458,4.458v51.714a4.463,4.463,0,0,1-4.458,4.458Z" transform="translate(101.137 -70.829)" fill="#fff"/>
  <path id="Tracé_117" data-name="Tracé 117" d="M377.737,480.63H343.856a4.463,4.463,0,0,1-4.458-4.458V424.458A4.463,4.463,0,0,1,343.856,420h33.881a4.463,4.463,0,0,1,4.458,4.458v51.714a4.463,4.463,0,0,1-4.458,4.458Z" transform="translate(130.116 -70.829)" fill="#fff"/>
  <path id="Tracé_118" data-name="Tracé 118" d="M340.737,533.63H306.856a4.463,4.463,0,0,1-4.458-4.458V477.458A4.463,4.463,0,0,1,306.856,473h33.881a4.463,4.463,0,0,1,4.458,4.458v51.714A4.463,4.463,0,0,1,340.737,533.63Z" transform="translate(101.137 -29.319)" fill="#fff"/>
  <path id="Tracé_119" data-name="Tracé 119" d="M377.737,533.63H343.856a4.463,4.463,0,0,1-4.458-4.458V477.458A4.463,4.463,0,0,1,343.856,473h33.881a4.463,4.463,0,0,1,4.458,4.458v51.714A4.463,4.463,0,0,1,377.737,533.63Z" transform="translate(130.116 -29.319)" fill="#fff"/>
  <path id="Tracé_120" data-name="Tracé 120" d="M340.737,586.63H306.856a4.463,4.463,0,0,1-4.458-4.458V530.458A4.463,4.463,0,0,1,306.856,526h33.881a4.463,4.463,0,0,1,4.458,4.458v51.714A4.463,4.463,0,0,1,340.737,586.63Z" transform="translate(101.137 12.192)" fill="#fff"/>
  <path id="Tracé_121" data-name="Tracé 121" d="M377.737,586.63H343.856a4.463,4.463,0,0,1-4.458-4.458V530.458A4.463,4.463,0,0,1,343.856,526h33.881a4.463,4.463,0,0,1,4.458,4.458v51.714A4.463,4.463,0,0,1,377.737,586.63Z" transform="translate(130.116 12.192)" fill="#fff"/>
  <path id="Tracé_122" data-name="Tracé 122" d="M788.954,474.5H760.422a8.034,8.034,0,0,1-8.025-8.024V429.025A8.034,8.034,0,0,1,760.422,421h28.531a8.034,8.034,0,0,1,8.024,8.024v37.448A8.034,8.034,0,0,1,788.954,474.5Z" transform="translate(453.586 -70.046)" fill="#e6e6e6"/>
  <path id="Tracé_123" data-name="Tracé 123" d="M978.779,759.847H832.555A15.174,15.174,0,0,1,817.4,744.69V461.157A15.174,15.174,0,0,1,832.555,446H978.779a15.174,15.174,0,0,1,15.157,15.157V744.69a15.174,15.174,0,0,1-15.157,15.157Z" transform="translate(504.496 -50.466)" fill="#e6e6e6"/>
  <path id="Tracé_124" data-name="Tracé 124" d="M976.773,759.847H723.555A15.174,15.174,0,0,1,708.4,744.69V461.157A15.174,15.174,0,0,1,723.555,446H976.773a15.174,15.174,0,0,1,15.157,15.157V744.69a15.174,15.174,0,0,1-15.158,15.157Z" transform="translate(419.125 -50.466)" fill="#f2f2f2"/>
  <path id="Tracé_125" data-name="Tracé 125" d="M773.954,474.5H745.422a8.033,8.033,0,0,1-8.025-8.024V429.025A8.033,8.033,0,0,1,745.422,421h28.531a8.034,8.034,0,0,1,8.025,8.024v37.448A8.034,8.034,0,0,1,773.954,474.5Z" transform="translate(441.838 -70.046)" fill="#f2f2f2"/>
  <path id="Tracé_126" data-name="Tracé 126" d="M795.737,551.13H761.856a4.463,4.463,0,0,1-4.458-4.458V494.958a4.463,4.463,0,0,1,4.458-4.458h33.881a4.463,4.463,0,0,1,4.458,4.458v51.713a4.463,4.463,0,0,1-4.458,4.458Z" transform="translate(457.503 -15.612)" fill="#fff"/>
  <path id="Tracé_127" data-name="Tracé 127" d="M832.737,551.13H798.856a4.463,4.463,0,0,1-4.458-4.458V494.958a4.463,4.463,0,0,1,4.458-4.458h33.881a4.463,4.463,0,0,1,4.458,4.458v51.713a4.463,4.463,0,0,1-4.458,4.458Z" transform="translate(486.482 -15.612)" fill="#fff"/>
  <path id="Tracé_128" data-name="Tracé 128" d="M795.737,604.13H761.856a4.464,4.464,0,0,1-4.458-4.458V547.958a4.463,4.463,0,0,1,4.458-4.458h33.881a4.463,4.463,0,0,1,4.458,4.458v51.713A4.463,4.463,0,0,1,795.737,604.13Z" transform="translate(457.503 25.898)" fill="#fff"/>
  <path id="Tracé_129" data-name="Tracé 129" d="M832.737,604.13H798.856a4.463,4.463,0,0,1-4.458-4.458V547.958a4.463,4.463,0,0,1,4.458-4.458h33.881a4.464,4.464,0,0,1,4.458,4.458v51.713a4.463,4.463,0,0,1-4.458,4.458Z" transform="translate(486.482 25.898)" fill="#fff"/>
  <path id="Tracé_130" data-name="Tracé 130" d="M1942.77,624.066H77.886a1.783,1.783,0,0,1,0-3.567H1942.77a1.783,1.783,0,0,1,0,3.567Z" transform="translate(-76.102 86.207)" fill="#e6e6e6"/>
  <path id="Tracé_131" data-name="Tracé 131" d="M512.52,659.066H346.681a1.783,1.783,0,1,1,0-3.566H512.52a1.783,1.783,0,1,1,0,3.566Z" transform="translate(134.424 113.619)" fill="#e6e6e6"/>
  <path id="Tracé_132" data-name="Tracé 132" d="M743.52,659.066H577.681a1.783,1.783,0,0,1,0-3.566H743.52a1.783,1.783,0,0,1,0,3.566Z" transform="translate(315.348 113.619)" fill="#e6e6e6"/>
  <path id="Tracé_133" data-name="Tracé 133" d="M974.521,659.066H808.681a1.783,1.783,0,1,1,0-3.566h165.84a1.783,1.783,0,0,1,0,3.566Z" transform="translate(496.272 113.619)" fill="#e6e6e6"/>
  <path id="Tracé_134" data-name="Tracé 134" d="M542.024,596.555c0-31.494-25.548-106.227-57.063-106.227S427.9,565.061,427.9,596.555a57.063,57.063,0,0,0,114.126,0Z" transform="translate(199.431 -15.747)" fill="#e6e6e6"/>
  <path id="Tracé_135" data-name="Tracé 135" d="M534.024,596.555c0-31.494-25.548-106.227-57.063-106.227S419.9,565.061,419.9,596.555a57.063,57.063,0,0,0,114.126,0Z" transform="translate(193.165 -15.747)" fill="#f2f2f2"/>
  <path id="Tracé_136" data-name="Tracé 136" d="M453.681,692.832a1.783,1.783,0,0,1-1.783-1.783V532.092a1.783,1.783,0,0,1,3.566,0V691.049A1.783,1.783,0,0,1,453.681,692.832Z" transform="translate(218.228 15.566)" fill="#ccc"/>
  <path id="Tracé_137" data-name="Tracé 137" d="M453.681,557.731a1.783,1.783,0,0,1-1.261-3.044l23.32-23.321a1.783,1.783,0,0,1,2.522,2.522l-23.32,23.321a1.777,1.777,0,0,1-1.261.522Z" transform="translate(218.229 15.986)" fill="#ccc"/>
  <path id="Tracé_138" data-name="Tracé 138" d="M1053.024,596.555c0-31.494-25.548-106.227-57.063-106.227S938.9,565.061,938.9,596.555a57.063,57.063,0,0,0,114.126,0Z" transform="translate(599.657 -15.747)" fill="#e6e6e6"/>
  <path id="Tracé_139" data-name="Tracé 139" d="M1045.024,596.555c0-31.494-25.548-106.227-57.063-106.227S930.9,565.061,930.9,596.555a57.063,57.063,0,0,0,114.126,0Z" transform="translate(593.391 -15.747)" fill="#f2f2f2"/>
  <path id="Tracé_140" data-name="Tracé 140" d="M964.681,692.832a1.783,1.783,0,0,1-1.783-1.783V532.092a1.783,1.783,0,1,1,3.566,0V691.049A1.783,1.783,0,0,1,964.681,692.832Z" transform="translate(618.454 15.566)" fill="#ccc"/>
  <path id="Tracé_141" data-name="Tracé 141" d="M964.681,557.731a1.783,1.783,0,0,1-1.261-3.044l23.32-23.321a1.783,1.783,0,0,1,2.522,2.522l-23.32,23.321a1.777,1.777,0,0,1-1.261.522Z" transform="translate(618.455 15.986)" fill="#ccc"/>
  <path id="Tracé_142" data-name="Tracé 142" d="M652.086,582.147H612.856a4.462,4.462,0,0,1-4.458-4.458V538.458A4.462,4.462,0,0,1,612.855,534h39.231a4.462,4.462,0,0,1,4.458,4.458v39.231A4.462,4.462,0,0,1,652.086,582.147Z" transform="translate(340.802 18.458)" fill="#3f3d56"/>
  <path id="Tracé_143" data-name="Tracé 143" d="M848.151,571.76a3.031,3.031,0,0,1,1.981,4.2l7.753,7.477-5.462,1.224-6.525-7.288a3.048,3.048,0,0,1,2.252-5.618Z" transform="translate(525.573 47.949)" fill="#ffb8b8"/>
  <path id="Tracé_144" data-name="Tracé 144" d="M856.967,592.127l-9.565-8.973a1.356,1.356,0,0,1-.037-1.942l1.953-1.978a1.359,1.359,0,0,1,1.789-.125l8.016,6.126,5-12.128a3.785,3.785,0,0,1,5.165-1.956h0a3.762,3.762,0,0,1,2.071,4.011c-.908,5.517-6.405,12.81-9.6,16.666a3.286,3.286,0,0,1-4.791.3Z" transform="translate(527.66 47.252)" fill="#6c63ff"/>
  <path id="Tracé_145" data-name="Tracé 145" d="M852.708,582.849l-7.042-10.214a.6.6,0,0,1,.154-.838l.283-.2a.6.6,0,0,1,.839.154l7.042,10.214a.6.6,0,0,1-.154.839l-.283.2a.6.6,0,0,1-.839-.154Z" transform="translate(526.552 47.825)" fill="#fff"/>
  <path id="Tracé_146" data-name="Tracé 146" d="M851.159,582.821l-5.844-8.477a1.66,1.66,0,0,1,.424-2.306l.6-.41,7.726,11.207-.6.411h0a1.659,1.659,0,0,1-2.306-.424Z" transform="translate(526.132 47.929)" fill="#3f3d56"/>
  <path id="Tracé_147" data-name="Tracé 147" d="M774.371,401.207l-3.672-.423.487-14.292,4.818.556Z" transform="translate(603.628 302.709)" fill="#ffb8b8"/>
  <path id="Tracé_148" data-name="Tracé 148" d="M854.354,623.461,842.517,622.1l.017-.15a4.638,4.638,0,0,1,5.139-4.076h0l7.23.834Z" transform="translate(524.17 84.122)" fill="#2f2e41"/>
  <path id="Tracé_149" data-name="Tracé 149" d="M800.833,399.2l-3.531,1.091-5.886-13.1,5.211-1.61Z" transform="translate(619.854 301.998)" fill="#ffb8b8"/>
  <path id="Tracé_150" data-name="Tracé 150" d="M879.009,621.186,867.624,624.7l-.045-.144a4.638,4.638,0,0,1,3.063-5.8h0l6.954-2.148Z" transform="translate(543.636 83.16)" fill="#2f2e41"/>
  <path id="Tracé_151" data-name="Tracé 151" d="M847.027,640.289a1.5,1.5,0,0,1-1.005-1.834l2.213-25.474A7.69,7.69,0,0,1,849.3,609.7l13.4-22.23,11.987,2.154.077.032c5.826,3.568,11,20.869,16,37.6.778,2.6,1.582,5.292,2.367,7.864a1.514,1.514,0,0,1-.813,1.952l-3.629,1.528a1.5,1.5,0,0,1-1.907-.667l-18.659-34.16a.3.3,0,0,0-.232-.155.291.291,0,0,0-.258.1L856.8,615.967l-3.979,23.352-.016.051a1.508,1.508,0,0,1-1.782.859l-3.9.074H847.1Z" transform="translate(526.873 60.333)" fill="#2f2e41"/>
  <path id="Tracé_152" data-name="Tracé 152" d="M856.2,605.625l-.076-.024-.023-.076c-.056-.186-5.535-18.726-.6-30.546l.005-.011c.145-.281,3.589-6.9,7.591-7.561l.107-.018,1.3,2.432c.409.41,7.449,7.72,4.254,20.285.287,1.03,4.175,15.176,2.061,17.29a3.88,3.88,0,0,1-2.638.662,53.292,53.292,0,0,1-11.982-2.433Z" transform="translate(532.725 44.609)" fill="#6c63ff"/>
  <circle id="Ellipse_14" data-name="Ellipse 14" cx="9.344" cy="9.344" r="9.344" transform="translate(1385.653 591.011)" fill="#2f2e41"/>
  <circle id="Ellipse_15" data-name="Ellipse 15" cx="7.403" cy="7.403" r="7.403" transform="translate(1383.882 594.848)" fill="#ffb8b8"/>
  <path id="Tracé_153" data-name="Tracé 153" d="M865.117,573.9c-.675.24-1.5.451-2.035-.046a1.8,1.8,0,0,1-.119-2.025,9.154,9.154,0,0,0,.925-1.946,3,3,0,0,0-1.1-2.742,8.136,8.136,0,0,0-2.682-1.349l-5.183-1.842a5.988,5.988,0,0,1-3.383-2.192,4.057,4.057,0,0,1,1.615-5.232,6.58,6.58,0,0,1,5.694-.112,29.4,29.4,0,0,0,3.035,1.214c2.075.548,4.435.057,6.258,1.227a5.779,5.779,0,0,1,2.27,5.041,15.584,15.584,0,0,1-1.525,5.575,10.375,10.375,0,0,1-1.69,2.97,3.5,3.5,0,0,1-2.959,1.275Z" transform="translate(530.933 35.546)" fill="#2f2e41"/>
  <circle id="Ellipse_16" data-name="Ellipse 16" cx="6.029" cy="6.029" r="6.029" transform="translate(1396.806 589.805)" fill="#2f2e41"/>
  <path id="Tracé_154" data-name="Tracé 154" d="M857.21,563.492a.6.6,0,1,1,.829.558v1.326a.226.226,0,0,1-.452,0V564.05a.6.6,0,0,1-.377-.558Z" transform="translate(535.677 41.083)" fill="#fff"/>
  <path id="Tracé_155" data-name="Tracé 155" d="M847.884,575.269a3.031,3.031,0,0,1,3.323,3.25l9.874,4.306-4.693,3.051-8.657-4.557a3.047,3.047,0,0,1,.153-6.051Z" transform="translate(526.207 50.769)" fill="#ffb8b8"/>
  <path id="Tracé_156" data-name="Tracé 156" d="M861.921,594l-12.093-5.077a1.356,1.356,0,0,1-.712-1.807l1.141-2.535a1.358,1.358,0,0,1,1.633-.74l9.648,2.948.46-13.111a3.785,3.785,0,0,1,4.159-3.633h0a3.762,3.762,0,0,1,3.339,3.038c1.072,5.487-1.539,14.239-3.19,18.968A3.285,3.285,0,0,1,861.921,594Z" transform="translate(529.245 46.673)" fill="#6c63ff"/>
  <path id="Tracé_157" data-name="Tracé 157" d="M169.03,585.467H150.509v-5.622c5.852-4.073,11.038-3.719,17.859.331Z" transform="translate(-17.825 52.104)" fill="#6c63ff"/>
  <path id="Tracé_158" data-name="Tracé 158" d="M74.049,420.41H69.994l-.606-15.639h4.661Z" transform="translate(54.346 317.025)" fill="#ffb8b8"/>
  <path id="Tracé_159" data-name="Tracé 159" d="M154.426,642.244H141.352v-.165a5.089,5.089,0,0,1,5.089-5.089h7.985Z" transform="translate(-24.997 99.121)" fill="#2f2e41"/>
  <path id="Tracé_160" data-name="Tracé 160" d="M84.81,420.41h4.053l.606-15.639H84.808Z" transform="translate(66.423 317.025)" fill="#ffb8b8"/>
  <path id="Tracé_161" data-name="Tracé 161" d="M160.331,636.99h7.985a5.089,5.089,0,0,1,5.089,5.089v.165H160.331Z" transform="translate(-10.133 99.121)" fill="#2f2e41"/>
  <path id="Tracé_162" data-name="Tracé 162" d="M173.726,661.83a1.5,1.5,0,0,1-1.453-1.165l-10.05-43.834a.482.482,0,0,0-.484-.388h0a.482.482,0,0,0-.483.393l-9.229,43.538a1.5,1.5,0,0,1-1.456,1.18h-4.4a1.488,1.488,0,0,1-1.486-1.576l3.274-55.183,1.318-.39h.025l25.882.227,5.512,55.122a1.488,1.488,0,0,1-1.361,1.628l-5.491.443Q173.786,661.83,173.726,661.83Z" transform="translate(-22.387 73.6)" fill="#2f2e41"/>
  <circle id="Ellipse_17" data-name="Ellipse 17" cx="8.123" cy="8.123" r="8.123" transform="translate(132.528 611.249)" fill="#ffb8b8"/>
  <path id="Tracé_163" data-name="Tracé 163" d="M156.585,631.917a14.019,14.019,0,0,1-4.209-.592,9.293,9.293,0,0,1-5.635-4.754,1.49,1.49,0,0,1-.111-1.109c.9-3.058,5.225-18.951,2.463-31.585a13.389,13.389,0,0,1,1.9-10.29,13.221,13.221,0,0,1,8.575-5.767h0c.458-.089.919-.163,1.369-.218a13.174,13.174,0,0,1,10.668,3.51,13.5,13.5,0,0,1,4.238,10.7l-2.123,34.066a1.475,1.475,0,0,1-.793,1.225C170.486,628.384,163.142,631.917,156.585,631.917Z" transform="translate(-20.91 52.529)" fill="#3f3d56"/>
  <path id="Tracé_164" data-name="Tracé 164" d="M168.245,570.932a9.973,9.973,0,0,0-10.931-6.146l2.561,2.07c-3.182.107-6.532-.121-8.8,2.11.723-.02,1.671,1.527,2.395,1.507a3.793,3.793,0,0,0-3.176,2.19,6.24,6.24,0,0,0-.368,3.968,46.1,46.1,0,0,0,2.853,5.668c-.094-3.231,6.267-10.938,9.373-10.134a8.525,8.525,0,0,0-3.936,2.988,11.544,11.544,0,0,1,6.846-1.12,4.842,4.842,0,0,0,1.632.091,1.993,1.993,0,0,0,1.181-3.185Z" transform="translate(-18.417 42.46)" fill="#2f2e41"/>
  <path id="Tracé_165" data-name="Tracé 165" d="M159.3,629.4a1.489,1.489,0,0,1-.6-.126l-15.412-6.727a1.478,1.478,0,0,1-.844-1.745l10.2-38.542a5.578,5.578,0,0,1,6.926-3.937l4.08,1.164L160.781,628a1.493,1.493,0,0,1-.71,1.18,1.476,1.476,0,0,1-.774.221Z" transform="translate(-24.182 53.002)" fill="#6c63ff"/>
  <path id="Tracé_166" data-name="Tracé 166" d="M177.183,620.8l-.678-2.557-.982-3.717-.473-1.782-.982-3.707-7.087-26.779a5.572,5.572,0,0,0-6.925-3.936l-4.078,1.164L158,613.606l.208,3.562.132,2.246v0l.212,3.542.3,5.037a1.485,1.485,0,0,0,2.08,1.277l15.412-6.727A1.477,1.477,0,0,0,177.183,620.8Z" transform="translate(-13.543 53.002)" fill="#6c63ff"/>
  <path id="Tracé_167" data-name="Tracé 167" d="M98.06,374.968l-16.844,4.424-.209-3.561,16.07-4.572Z" transform="translate(63.446 290.778)" fill="#ccc"/>
  <path id="Tracé_168" data-name="Tracé 168" d="M99.365,378.056,81.41,382.773l-.212-3.543v0l17.185-4.888Z" transform="translate(63.596 293.189)" fill="#ccc"/>
  <path id="Tracé_169" data-name="Tracé 169" d="M84.31,376.486l-.209,3.5-16.52-4.92.968-3.659Z" transform="translate(52.932 290.89)" fill="#ccc"/>
  <path id="Tracé_170" data-name="Tracé 170" d="M84.6,379.894l-16.857-5.441-.97,3.668,17.622,5.248Z" transform="translate(52.298 293.28)" fill="#ccc"/>
  <path id="Tracé_171" data-name="Tracé 171" d="M145.559,617.352a3.553,3.553,0,0,0,2.329-4.925l7.925-24.879-5.619-1.177-7.266,24.392a3.572,3.572,0,0,0,2.631,6.589Z" transform="translate(-25.225 59.477)" fill="#ffb8b8"/>
  <path id="Tracé_172" data-name="Tracé 172" d="M153.068,580.173h0c1.614.165,2.521,1.979,2.12,4.238l-1.925,10.841c-.144.813-.813,1.456-1.369,1.317l-6.512-1.628c-.5-.125-.686-.837-.4-1.55l3.909-9.807A4.719,4.719,0,0,1,153.068,580.173Z" transform="translate(-22.26 54.622)" fill="#3f3d56"/>
  <path id="Tracé_173" data-name="Tracé 173" d="M159.609,563h0a10.581,10.581,0,0,1,10.575,10.251h1.993a.661.661,0,0,1,.661.661v2.646a.661.661,0,0,1-.661.661H149.687a.662.662,0,0,1-.661-.661v-2.976A10.583,10.583,0,0,1,159.609,563Z" transform="translate(-18.987 41.17)" fill="#6c63ff"/>
  <path id="Tracé_174" data-name="Tracé 174" d="M158.4,604.136h-4.675a.6.6,0,0,1-.6-.545L152.186,594h7.748L159,603.591A.6.6,0,0,1,158.4,604.136Z" transform="translate(-16.512 65.451)" fill="#e6e6e6"/>
  <path id="Tracé_175" data-name="Tracé 175" d="M160.181,595.842h-7.723a.6.6,0,0,1-.6-.6v-1.448a.6.6,0,0,1,.6-.6h7.723a.6.6,0,0,1,.6.6v1.448A.6.6,0,0,1,160.181,595.842Z" transform="translate(-16.771 64.815)" fill="#ccc"/>
  <path id="Tracé_176" data-name="Tracé 176" d="M156.1,603.985a3.506,3.506,0,0,1,.538.105l12.45-10.677-.728-3.918,5.769-1.871,1.962,6.81a2.646,2.646,0,0,1-1.128,2.969L159.2,607.381a3.472,3.472,0,1,1-3.1-3.4Z" transform="translate(-16.456 60.458)" fill="#ffb8b8"/>
  <path id="Tracé_177" data-name="Tracé 177" d="M162.953,580.719h0c1.724-.482,3.446.829,4.023,3.065l2.769,10.725c.208.8-.2,1.658-.825,1.749l-7.377,1.061c-.568.082-1.068-.5-1.089-1.267l-.286-10.554a4.643,4.643,0,0,1,2.785-4.778Z" transform="translate(-10.283 54.971)" fill="#3f3d56"/>
  <path id="Tracé_178" data-name="Tracé 178" d="M212.02,602.3H206.4a.722.722,0,0,1-.721-.654l-1.124-11.524h9.308l-1.124,11.524a.722.722,0,0,1-.722.655Z" transform="translate(24.506 62.411)" fill="#e6e6e6"/>
  <path id="Tracé_179" data-name="Tracé 179" d="M214.162,592.332h-9.278a.726.726,0,0,1-.725-.725v-1.74a.726.726,0,0,1,.725-.725h9.279a.726.726,0,0,1,.725.725v1.74A.726.726,0,0,1,214.162,592.332Z" transform="translate(24.194 61.647)" fill="#ccc"/>
  <path id="Tracé_180" data-name="Tracé 180" d="M243.929,647.018a66.556,66.556,0,0,1-9.566-17.853,1.709,1.709,0,0,1,.807-2.058l13.965-7.483a1.687,1.687,0,0,1,1.48-.06,1.716,1.716,0,0,1,.978,1.146,40.657,40.657,0,0,0,8.919,16.645,1.716,1.716,0,0,1,.413,1.449,1.687,1.687,0,0,1-.87,1.2l-13.965,7.483A1.71,1.71,0,0,1,243.929,647.018Z" transform="translate(47.779 85.362)" fill="#ccc"/>
  <path id="Tracé_181" data-name="Tracé 181" d="M244.359,645.779a.516.516,0,0,0,.645.133l13.965-7.483a.5.5,0,0,0,.259-.357.524.524,0,0,0-.129-.448,41.855,41.855,0,0,1-9.181-17.135.524.524,0,0,0-.3-.356.5.5,0,0,0-.441.018l-13.965,7.482a.516.516,0,0,0-.246.611A65.364,65.364,0,0,0,244.359,645.779Z" transform="translate(48.302 85.885)" fill="#fff"/>
  <path id="Tracé_182" data-name="Tracé 182" d="M247.279,626.713l-7.606,3.357a1.193,1.193,0,0,1-1.572-.609l-.188-.426a1.193,1.193,0,0,1,.609-1.572l7.606-3.357a1.193,1.193,0,0,1,1.572.609l.188.426a1.194,1.194,0,0,1-.609,1.572Z" transform="translate(50.552 88.951)" fill="#ccc"/>
  <path id="Tracé_183" data-name="Tracé 183" d="M248.838,629.61l-7.606,3.357a1.194,1.194,0,0,1-1.572-.609l-.188-.426a1.193,1.193,0,0,1,.609-1.572L247.688,627a1.193,1.193,0,0,1,1.572.609l.188.426A1.193,1.193,0,0,1,248.838,629.61Z" transform="translate(51.773 91.22)" fill="#ccc"/>
  <path id="Tracé_184" data-name="Tracé 184" d="M236.446,648.851a4.269,4.269,0,0,1-.819-6.494l-3.207-45.519,9.239.9.254,44.576a4.292,4.292,0,0,1-5.466,6.54Z" transform="translate(46.328 67.675)" fill="#a0616a"/>
  <path id="Tracé_185" data-name="Tracé 185" d="M234.217,613.681a1.781,1.781,0,0,1-.739-1.351l-.677-12.268a4.926,4.926,0,0,1,9.674-1.56l2.974,10.969a1.79,1.79,0,0,1-1.258,2.194l-8.46,2.294a1.782,1.782,0,0,1-1.515-.276Z" transform="translate(46.622 66.127)" fill="#3f3d56"/>
  <path id="Tracé_186" data-name="Tracé 186" d="M151.815,441.451l-4.87,0-2.318-18.788h7.19Z" transform="translate(113.275 331.037)" fill="#a0616a"/>
  <path id="Tracé_187" data-name="Tracé 187" d="M145.486,432.417h10.483v5.915h-15.31v-1.088a4.827,4.827,0,0,1,4.827-4.828Z" transform="translate(110.167 338.678)" fill="#2f2e41"/>
  <path id="Tracé_188" data-name="Tracé 188" d="M162.065,441.451l-4.87,0-2.318-18.788h7.19Z" transform="translate(121.303 331.037)" fill="#a0616a"/>
  <path id="Tracé_189" data-name="Tracé 189" d="M155.735,432.417h10.483v5.915h-15.31v-1.088a4.827,4.827,0,0,1,4.827-4.828Z" transform="translate(118.194 338.678)" fill="#2f2e41"/>
  <path id="Tracé_190" data-name="Tracé 190" d="M228.59,677.594l-5.363-.256a1.787,1.787,0,0,1-1.7-1.773c-1.414-21.822-3.372-45.221-.374-54.26a1.788,1.788,0,0,1,2.045-1.782l21.454,3.114a1.778,1.778,0,0,1,1.531,1.756c2.739,10.7,2.863,30.112,2.759,50.278a1.788,1.788,0,0,1-1.788,1.8H241.37a1.78,1.78,0,0,1-1.766-1.51l-3.567-22.675a1.391,1.391,0,0,0-2.755.051l-2.831,23.683a1.8,1.8,0,0,1-1.776,1.576Z" transform="translate(36.271 85.427)" fill="#2f2e41"/>
  <path id="Tracé_191" data-name="Tracé 191" d="M231.933,646.477a26.99,26.99,0,0,0-10.2-3.495,1.756,1.756,0,0,1-1.213-.665,1.779,1.779,0,0,1-.37-1.351l5.141-38.165a13.2,13.2,0,0,1,7.694-10.314,12.837,12.837,0,0,1,12.475.978q.264.176.519.359A13.183,13.183,0,0,1,251,607.561c-3.152,12.9-4.235,34.037-4.42,38.145a1.774,1.774,0,0,1-1.159,1.591,17.912,17.912,0,0,1-6.05,1.077A15.15,15.15,0,0,1,231.933,646.477Z" transform="translate(36.703 63.347)" fill="#3f3d56"/>
  <circle id="Ellipse_18" data-name="Ellipse 18" cx="9.759" cy="9.759" r="9.759" transform="translate(263.177 631.133)" fill="#a0616a"/>
  <path id="Tracé_192" data-name="Tracé 192" d="M241,597.489a3.152,3.152,0,0,1-5.439-1.751,3.2,3.2,0,0,1,0-.618,14.327,14.327,0,0,0,.638-3.478,1.824,1.824,0,0,0-.334-.854c-1.451-1.943-4.856.869-6.226-.89-.84-1.078.147-2.776-.5-3.982-.85-1.591-3.369-.806-4.948-1.677-1.757-.969-1.652-3.666-.5-5.305a8.346,8.346,0,0,1,6.327-3.221,16.971,16.971,0,0,1,7.149,1.4,14.287,14.287,0,0,1,6.755,4.684,11.435,11.435,0,0,1,1.156,9.736A18.351,18.351,0,0,1,241,597.489Z" transform="translate(38.838 51.124)" fill="#2f2e41"/>
  <path id="Tracé_193" data-name="Tracé 193" d="M252.968,595.212c-.171-.8-1.637-1.9-3.735-2.793a23.1,23.1,0,0,0-20.861,1.788.985.985,0,0,0-.91.775l-7.057,31.211-.918,4.065-.608,2.69L217.962,637l-.489,2.165a1,1,0,0,0,.882,1.212l30.472,2.63c.028,0,.06,0,.087,0a.993.993,0,0,0,.985-.93l.29-4.415.31-4.72.135-2.046.306-4.708,2.03-30.929v-.028Z" transform="translate(34.603 62.889)" fill="#6c63ff"/>
  <path id="Tracé_194" data-name="Tracé 194" d="M212.943,595.758a4.179,4.179,0,0,1,.1.652l17.069,9.847,4.149-2.388,4.423,5.79-8.876,6.326L210.33,600.622a4.17,4.17,0,1,1,2.613-4.864Z" transform="translate(24.628 64.308)" fill="#a0616a"/>
  <path id="Tracé_195" data-name="Tracé 195" d="M219.3,604.85a1.781,1.781,0,0,1,.514-1.452l8.687-8.689a4.926,4.926,0,0,1,7.616,6.165l-6.187,9.533a1.79,1.79,0,0,1-2.473.526l-7.353-4.771a1.781,1.781,0,0,1-.805-1.313Z" transform="translate(36.045 64.876)" fill="#3f3d56"/>
  <path id="Tracé_196" data-name="Tracé 196" d="M173.943,386.425l-.3,4.71-31.149-.644.918-4.066Z" transform="translate(111.6 302.656)" fill="#ccc"/>
  <path id="Tracé_197" data-name="Tracé 197" d="M174.172,390.213l-.31,4.72-32.228-.667.918-4.053Z" transform="translate(110.931 305.623)" fill="#ccc"/>
  <path id="Tracé_198" data-name="Tracé 198" d="M236.248,572.959h0a12.712,12.712,0,0,0-12.7,12.316h-2.394a.8.8,0,0,0-.795.795v3.179a.8.8,0,0,0,.795.795h27.019a.794.794,0,0,0,.795-.795v-3.576a12.715,12.715,0,0,0-12.715-12.715Z" transform="translate(36.879 48.971)" fill="#6c63ff"/>
  <path id="Tracé_199" data-name="Tracé 199" d="M284.67,658.813h-2.725c-.017-.33-3.676-8.916-3.676-8.916l-2.212-5.35-1.462-3.566-2.212-5.35-2.532-6.152a1.263,1.263,0,0,0-2.461,0l-2.532,6.152-2.212,5.35-1.462,3.566-2.212,5.35s-3.659,8.586-3.676,8.916h-2.725a2.675,2.675,0,1,0,0,5.35h32.1a2.675,2.675,0,1,0,0-5.35Z" transform="translate(60.018 92.474)" fill="#ff6584"/>
  <path id="Tracé_200" data-name="Tracé 200" d="M285.237,688.731h-1.056c.1-.228-4.6-12.233-4.6-12.233l-2.818-6.865-1.89-4.6-2.818-6.865-3.067-7.436a1.616,1.616,0,0,0-3.139,0l-3.067,7.436-2.818,6.865-1.909,4.6-2.817,6.865s-4.676,12-4.579,12.233h-1.092a2.675,2.675,0,0,0,0,5.35h35.664a2.675,2.675,0,1,0,0-5.35Z" transform="translate(57.668 108.92)" fill="#ff6584"/>
  <path id="Tracé_201" data-name="Tracé 201" d="M192.893,413.659H180.945l2.211-5.35h7.525Z" transform="translate(141.72 319.796)" fill="#f2f2f2"/>
  <path id="Tracé_202" data-name="Tracé 202" d="M198.179,418.659H178.885l2.211-5.35h14.872Z" transform="translate(140.107 323.712)" fill="#f2f2f2"/>
  <path id="Tracé_203" data-name="Tracé 203" d="M193.033,437.034H178.125l2.817-6.865h9.273Z" transform="translate(139.511 336.918)" fill="#f2f2f2"/>
  <path id="Tracé_204" data-name="Tracé 204" d="M199.816,443.464H175.475l2.817-6.865H197Z" transform="translate(137.436 341.954)" fill="#f2f2f2"/>
  <path id="Tracé_205" data-name="Tracé 205" d="M492.231,593.9a2.649,2.649,0,0,0-.336-4.048l-1.338-8.82-5.5,1.73,3.011,7.869a2.664,2.664,0,0,0,4.158,3.27Z" transform="translate(244.204 55.293)" fill="#ffb8b8"/>
  <path id="Tracé_206" data-name="Tracé 206" d="M487.488,602.157l-3.39-15.832a9.066,9.066,0,0,1,2.589-8.478c4.339-4.181,9.916-9.452,11.842-10.815a9.932,9.932,0,0,1,6.214-1.834l.046.005,2.916,2.756-6.352,10.457-9.643,6.042,1.073,15.517Z" transform="translate(243.286 42.885)" fill="#6c63ff"/>
  <rect id="Rectangle_10" data-name="Rectangle 10" width="16.457" height="2.232" rx="0.626" transform="translate(727.304 623.527)" fill="#ccc"/>
  <rect id="Rectangle_11" data-name="Rectangle 11" width="16.457" height="2.232" rx="0.626" transform="translate(727.304 647.795)" fill="#ccc"/>
  <path id="Tracé_207" data-name="Tracé 207" d="M492.023,658.686a.558.558,0,0,1-.556-.509l-7.112-83.4a.558.558,0,1,1,1.111-.1l6.548,77.057,6.362-77.056a.558.558,0,0,1,1.112.1l-6.91,83.4a.558.558,0,0,1-.555.51Z" transform="translate(243.649 49.918)" fill="#ccc"/>
  <circle id="Ellipse_19" data-name="Ellipse 19" cx="7.319" cy="7.319" r="7.319" transform="translate(744.318 590.106)" fill="#ffb8b8"/>
  <path id="Tracé_208" data-name="Tracé 208" d="M410.8,402.113,407.321,401l2.623-13.954,5.137,1.637Z" transform="translate(319.022 303.146)" fill="#ffb8b8"/>
  <path id="Tracé_209" data-name="Tracé 209" d="M490.188,624.464l-11.205-3.572.093-.291a4.415,4.415,0,0,1,5.541-2.862l7,2.232Z" transform="translate(239.442 83.881)" fill="#2f2e41"/>
  <path id="Tracé_210" data-name="Tracé 210" d="M425.844,401.645H422.19l-1.739-14.091h5.393Z" transform="translate(329.306 303.54)" fill="#ffb8b8"/>
  <path id="Tracé_211" data-name="Tracé 211" d="M493.655,623.3h11.2V619.14h-7.072a4.136,4.136,0,0,0-4.131,4.131Z" transform="translate(250.934 85.142)" fill="#2f2e41"/>
  <path id="Tracé_212" data-name="Tracé 212" d="M512.367,644.6l-1.233-.184a18.638,18.638,0,0,1-4.557-.851c-.3-.133-.325-2.146-.142-13.46.133-8.305.3-18.641-.023-24.19a.976.976,0,0,0-1.87-.329c-2.783,6.426-7.451,20.806-10.54,30.322-1.075,3.31-1.923,5.924-2.46,7.492a1.262,1.262,0,0,1-1.493.808c-2.542-.635-2.372-.906-5.993-1.842a1.252,1.252,0,0,1-.915-1.473c.655-3.089,12.64-53.165,13.557-57.926a1.256,1.256,0,0,1,1.48-1c2.7.544,4.34,1.12,7.007,1.678,2.877.6,5.853,1.224,8.755,1.805h0a1.246,1.246,0,0,1,.731.448,7.77,7.77,0,0,0,2.91,1.955c.76.363-.962.331-.3.855,2.681,2.122-1.174,45.212-3.5,54.945a1.259,1.259,0,0,1-1.408.946Z" transform="translate(242.675 56.011)" fill="#2f2e41"/>
  <path id="Tracé_213" data-name="Tracé 213" d="M504.355,570.855c-.427-1.813,1.733-5.714,1.306-7.528-.289-1.228-3.177-.393-3.851-1.46a3.872,3.872,0,0,0-3.064-1.945c-1.45-.016-2.877,1.059-4.25.594a2.738,2.738,0,0,1-1.219-3.7,6.655,6.655,0,0,1,3.243-2.845,9.792,9.792,0,0,1,7.2-1.21,11.828,11.828,0,0,1,3.808,2.393,13.27,13.27,0,0,1,2.884,2.927,7.865,7.865,0,0,1,.124,7.718,11.6,11.6,0,0,1-6,5.165" transform="translate(250.401 32.974)" fill="#2f2e41"/>
  <path id="Tracé_214" data-name="Tracé 214" d="M489.344,603.764c.79-1.32,1.989-7.5,3.468-17.881,1.007-7.085,1.884-14.283,2.32-17.96a1.768,1.768,0,0,1,.993-1.4q.424-.2.842-.387a19.307,19.307,0,0,1,20.6,2.894l.033.031.008.044c.016.082,1.527,8.228-1.569,13.732-3.054,5.431-3.09,19.812-3.09,19.957v.185l-.178-.051c-4.751-1.357-23.1,1.017-23.288,1.042l-.286.037Z" transform="translate(247.441 42.259)" fill="#6c63ff"/>
  <rect id="Rectangle_12" data-name="Rectangle 12" width="16.457" height="2.232" rx="0.626" transform="translate(749.061 627.153)" fill="#ccc"/>
  <rect id="Rectangle_13" data-name="Rectangle 13" width="16.457" height="2.232" rx="0.626" transform="translate(749.061 651.421)" fill="#ccc"/>
  <path id="Tracé_215" data-name="Tracé 215" d="M504.224,657.372a.558.558,0,0,1-.556-.508l-7.112-80.055a.558.558,0,1,1,1.111-.1l6.548,73.71,6.362-73.708a.558.558,0,1,1,1.112.1l-6.91,80.055a.558.558,0,0,1-.555.51Z" transform="translate(253.205 51.51)" fill="#ccc"/>
  <path id="Tracé_216" data-name="Tracé 216" d="M498.307,594.04a2.649,2.649,0,0,1,2.481-3.216l5.916-6.677,3.673,4.438-6.8,4.97a2.664,2.664,0,0,1-5.268.485Z" transform="translate(254.529 57.734)" fill="#ffb8b8"/>
  <path id="Tracé_217" data-name="Tracé 217" d="M500.211,602.775l9.332-12.443-4.812-10.312.349-12.23,3.945-.729.042.021a9.933,9.933,0,0,1,4.22,4.916c.876,2.191,2.694,9.646,4.065,15.514a9.066,9.066,0,0,1-2.433,8.524l-11.448,11.448Z" transform="translate(256.069 44.351)" fill="#6c63ff"/>
  <path id="Tracé_218" data-name="Tracé 218" d="M478.287,633.694l12.768,3.074a1.094,1.094,0,0,0,1.271-.593l10.968-29.161a.9.9,0,0,0,0-.71,1.017,1.017,0,0,0-.584-.547l-9.6-3.666a1.154,1.154,0,0,0-.941.052.979.979,0,0,0-.513.628h0l-6.775,25.7-.1.006a9.305,9.305,0,0,0-5.67,2.363,3.707,3.707,0,0,0-.823,2.851Z" transform="translate(238.872 71.728)" fill="#ccc"/>
  <rect id="Rectangle_14" data-name="Rectangle 14" width="0.558" height="11.706" transform="translate(726.346 689.627) rotate(-83.955)" fill="#b3b3b3"/>
  <rect id="Rectangle_15" data-name="Rectangle 15" width="0.558" height="10.272" transform="translate(725.166 694.175) rotate(-65.776)" fill="#b3b3b3"/>
  <path id="Tracé_219" data-name="Tracé 219" d="M419.421,386.752l-11.042-3.657.23-.508,11.04,3.656Z" transform="translate(319.851 299.649)" fill="#b3b3b3"/>
  <path id="Tracé_220" data-name="Tracé 220" d="M420.047,386.079l-11.042-5.33.228-.51,11.042,5.33Z" transform="translate(320.341 297.811)" fill="#b3b3b3"/>
  <rect id="Rectangle_16" data-name="Rectangle 16" width="0.558" height="10.47" transform="translate(724.061 698.463) rotate(-49.495)" fill="#b3b3b3"/>
  <rect id="Rectangle_17" data-name="Rectangle 17" width="0.558" height="7.74" transform="translate(721.649 700.521) rotate(-24.393)" fill="#b3b3b3"/>
  <path id="Tracé_221" data-name="Tracé 221" d="M661.964,604.48a3.322,3.322,0,0,1-2.3-4.544l-12.247-27.67,7.006-1.765,9.836,27.754a3.34,3.34,0,0,1-2.292,6.225Z" transform="translate(371.361 47.046)" fill="#a0616a"/>
  <path id="Tracé_222" data-name="Tracé 222" d="M650.163,582.5a1.488,1.488,0,0,1-.818-.932l-2.142-7.163a4.137,4.137,0,1,1,7.483-3.53l4.141,6.254a1.49,1.49,0,0,1-.61,2.172l-6.814,3.19A1.487,1.487,0,0,1,650.163,582.5Z" transform="translate(370.886 45.481)" fill="#6c63ff"/>
  <path id="Tracé_223" data-name="Tracé 223" d="M667.253,575.393l-7.513,5.319a.564.564,0,0,1-.662,0l-2.03-1.524a.557.557,0,0,1-.036-.869l5.781-5.155a.571.571,0,0,1,.564-.109l3.762,1.346a.567.567,0,0,1,.135.993Z" transform="translate(378.728 49.02)" fill="#3f3d56"/>
  <path id="Tracé_224" data-name="Tracé 224" d="M666.274,574.72a.2.2,0,0,0-.117-.259l-3.388-1.212a.2.2,0,0,0-.2.037l-5.214,4.65-.029.031a.194.194,0,0,0,.045.272l1.826,1.371a.2.2,0,0,0,.236,0l6.77-4.793A.2.2,0,0,0,666.274,574.72Z" transform="translate(379.095 49.189)" fill="#fff"/>
  <path id="Tracé_225" data-name="Tracé 225" d="M571.214,401.051h3.791l1.8-14.624h-5.6Z" transform="translate(447.387 302.658)" fill="#a0616a"/>
  <path id="Tracé_226" data-name="Tracé 226" d="M646.774,618.125h7.467A4.758,4.758,0,0,1,659,622.883v.155H646.774Z" transform="translate(370.86 84.346)" fill="#2f2e41"/>
  <path id="Tracé_227" data-name="Tracé 227" d="M564.1,401.051H567.9l1.8-14.624h-5.6Z" transform="translate(441.817 302.658)" fill="#a0616a"/>
  <path id="Tracé_228" data-name="Tracé 228" d="M639.663,618.125h7.467a4.758,4.758,0,0,1,4.758,4.758v.155H639.664Z" transform="translate(365.291 84.346)" fill="#2f2e41"/>
  <path id="Tracé_229" data-name="Tracé 229" d="M640.015,645.446a1.667,1.667,0,0,1-.411-1.073c-.9-9.3,1.555-58.178,7.238-62.352l.035-.034,16.632-2.872h0l.309.309c.024.431,3.048,43.276-5.3,65.143a1.392,1.392,0,0,1-1.3.884H653.9a1.391,1.391,0,0,1-1.387-1.5l2.688-40.944a.464.464,0,0,0-.916-.135l-7.571,41.556a1.4,1.4,0,0,1-1.257,1.092l-4.36.323q-.052,0-.1,0a1.393,1.393,0,0,1-.978-.4Z" transform="translate(365.101 53.793)" fill="#2f2e41"/>
  <circle id="Ellipse_20" data-name="Ellipse 20" cx="7.596" cy="7.596" r="7.596" transform="translate(1019.405 592.654)" fill="#a0616a"/>
  <path id="Tracé_230" data-name="Tracé 230" d="M641.994,600.03a1.8,1.8,0,0,1-.516-1.221l3.1-14.522c-2.474-10.515.82-12.486,4.537-14.479l-.024-.012,1.552-4.2a1.313,1.313,0,0,1,1.836-.85l7.917,4.206a1.567,1.567,0,0,1,.735.925,1.964,1.964,0,0,1-.026,1.277l-.585,1.582c1.512,2.019,3.849,10.006,1.375,13.1l1.867,10.306a1.627,1.627,0,0,1-1.159,1.734l-19.508,2.5a1.159,1.159,0,0,1-.23.023A1.259,1.259,0,0,1,641.994,600.03Z" transform="translate(366.712 42.437)" fill="#6c63ff"/>
  <path id="Tracé_231" data-name="Tracé 231" d="M667.645,576.9a3.245,3.245,0,0,0-.345.38L652,576.225l-1.641-3.345-5.372,1.817,2.33,6.2a2.474,2.474,0,0,0,2.5,1.6l17.4-1.319a3.246,3.246,0,1,0,.426-4.276Z" transform="translate(369.46 48.91)" fill="#a0616a"/>
  <path id="Tracé_232" data-name="Tracé 232" d="M652.943,579.545l-6.669,2.22a1.392,1.392,0,0,1-1.81-1.079l-1.215-6.9a3.865,3.865,0,0,1,7.341-2.42l3.155,6.232a1.392,1.392,0,0,1-.8,1.949Z" transform="translate(367.945 45.643)" fill="#6c63ff"/>
  <circle id="Ellipse_21" data-name="Ellipse 21" cx="6.185" cy="6.185" r="6.185" transform="translate(1016.549 581.881)" fill="#2f2e41"/>
  <path id="Tracé_233" data-name="Tracé 233" d="M663.628,566.129a3.237,3.237,0,0,0,1.791-.15,2.125,2.125,0,0,0,1.063-1.6c1.152-7.657-5.358-7.027-6.129-7.359a8.446,8.446,0,0,1-1.362-.994,6.367,6.367,0,0,0-3.557-.782,10.255,10.255,0,0,0-4.323.528,6.475,6.475,0,0,0-2.873,2.648,13.377,13.377,0,0,0-1.425,3.691,9.211,9.211,0,0,0-.242,4.524,5.594,5.594,0,0,0,5.078,4.069,4.185,4.185,0,0,1,2.209-4.585,6.382,6.382,0,0,1,4.211-.5,18.541,18.541,0,0,0,2.793.348C661.783,566,662.888,566.051,663.628,566.129Z" transform="translate(370.564 35.059)" fill="#2f2e41"/>
  <path id="Tracé_234" data-name="Tracé 234" d="M989.422,633.11a30.61,30.61,0,0,1,61.219,0" transform="translate(639.229 72.108)" fill="#f2f2f2"/>
  <path id="Tracé_235" data-name="Tracé 235" d="M1006.951,627.478a.827.827,0,0,1-.827-.827V610.518a.827.827,0,0,1,1.655,0V626.65a.827.827,0,0,1-.827.827Z" transform="translate(652.31 77.741)" fill="#ccc"/>
  <path id="Tracé_236" data-name="Tracé 236" d="M1011.311,621.026a.823.823,0,0,1-.539-.2l-9.927-8.52a.827.827,0,0,1,1.078-1.255l9.927,8.52a.827.827,0,0,1-.539,1.455Z" transform="translate(647.95 78.649)" fill="#ccc"/>
  <path id="Tracé_237" data-name="Tracé 237" d="M1042.31,633.11a30.61,30.61,0,0,1,61.219,0" transform="translate(680.652 72.108)" fill="#f2f2f2"/>
  <path id="Tracé_238" data-name="Tracé 238" d="M1059.839,627.478a.828.828,0,0,1-.828-.827V610.518a.827.827,0,1,1,1.655,0V626.65a.827.827,0,0,1-.827.827Z" transform="translate(693.733 77.741)" fill="#ccc"/>
  <path id="Tracé_239" data-name="Tracé 239" d="M1064.2,621.026a.824.824,0,0,1-.539-.2l-9.927-8.52a.827.827,0,1,1,1.078-1.255l9.927,8.521a.827.827,0,0,1-.539,1.455Z" transform="translate(689.372 78.649)" fill="#ccc"/>
</svg>
