<svg xmlns="http://www.w3.org/2000/svg" width="141.063" height="105.797" viewBox="0 0 141.063 105.797">
  <path id="Icon_metro-profile" data-name="Icon metro-profile" d="M135.485,22.826h-9.864V8.024l-20.363-.312.106,15.114H44.173l.418-15.114-19.94.312V23.138l-10.076-.312A10.08,10.08,0,0,0,4.5,32.9v70.531a10.08,10.08,0,0,0,10.076,10.076H135.485a10.08,10.08,0,0,0,10.076-10.076V32.9A10.08,10.08,0,0,0,135.485,22.826ZM110.3,12.75h10.076V32.9H110.3ZM44.8,47.069c6.086,0,11.023,6.484,11.023,14.484S50.888,76.037,44.8,76.037,33.779,69.553,33.779,61.553,38.716,47.069,44.8,47.069ZM29.688,12.75H39.764V32.9H29.688ZM22.973,93.1s1.194-9.582,3.909-11.391,10.529-3.013,10.529-3.013,5.068,5.416,7.224,5.416,7.219-5.416,7.219-5.416,7.819,1.2,10.534,3.013C65.579,83.831,66.375,93.1,66.375,93.1h-43.4ZM125.41,88.319H80.068V83.281H125.41Zm0-10.076H80.068V73.205H125.41Zm0-10.076H80.068V63.13H125.41Zm0-10.076H80.068V53.054H125.41Z" transform="translate(-4.499 -7.712)" fill="#6c63fc"/>
</svg>
